<svg width="512" height="512" viewBox="0 0 512 512" fill="none" xmlns="http://www.w3.org/2000/svg">
  <rect width="512" height="512" rx="64" fill="#3B3B3B"/>
  <path d="M256 128C179.2 128 128 179.2 128 256s51.2 128 128 128 128-51.2 128-128-51.2-128-128-128zm0 213.333c-47.104 0-85.333-38.229-85.333-85.333s38.229-85.333 85.333-85.333 85.333 38.229 85.333 85.333-38.229 85.333-85.333 85.333z" fill="white"/>
  <path d="M256 170.667c-47.104 0-85.333 38.229-85.333 85.333s38.229 85.333 85.333 85.333 85.333-38.229 85.333-85.333-38.229-85.333-85.333-85.333zm0 128c-23.552 0-42.667-19.115-42.667-42.667s19.115-42.667 42.667-42.667 42.667 19.115 42.667 42.667-19.115 42.667-42.667 42.667z" fill="white"/>
</svg>
